<svg width="48" height="48" viewBox="0 0 48 48" fill="none" xmlns="http://www.w3.org/2000/svg" xmlns:xlink="http://www.w3.org/1999/xlink">
<mask id="mask_0_15_1250" style="mask-type:alpha" maskUnits="userSpaceOnUse" x="0" y="0" width="24" height="24">
<rect  x="0" y="0" width="48" height="48" fill="#D9D9D9"/>
</mask>
<g mask="url(#mask_0_15_1250)">
<path d="M7.1,24L21.8,38.7C22.3,39.2 22.542,39.783 22.525,40.45C22.508,41.117 22.25,41.7 21.75,42.2C21.25,42.7 20.667,42.95 20,42.95C19.333,42.95 18.75,42.7 18.25,42.2L2.85,26.85C2.45,26.45 2.15,26 1.95,25.5C1.75,25 1.65,24.5 1.65,24C1.65,23.5 1.75,23 1.95,22.5C2.15,22 2.45,21.55 2.85,21.15L18.25,5.75C18.75,5.25 19.342,5.008 20.025,5.025C20.708,5.042 21.3,5.3 21.8,5.8C22.3,6.3 22.55,6.883 22.55,7.55C22.55,8.217 22.3,8.8 21.8,9.3L7.1,24Z" fill="#65B741"/>
</g>
</svg>
