<svg viewBox="0 0 512 512" xmlns="http://www.w3.org/2000/svg"><defs><clipPath id="a"><path d="M0 0h512v512H0z"></path></clipPath></defs><g clip-path="url(#a)" data-name="Chr 9"><path fill="#ffffff" d="M0 0h512v512H0z" class="fill-ffffff"></path><g data-name="Character 9"><circle cx="127" cy="127" data-name="8. Back Hair" fill="#22689e" r="127" transform="translate(129 24)" class="fill-463929"></circle><g data-name="7. Arm L" fill="#97c0d9" class="fill-7e7e7e"><circle cx="60" cy="60" data-name="Ellipse 59" r="60" transform="translate(80 341)"></circle><path data-name="Rectangle 67" d="M80 401h68v111H80z"></path></g><g data-name="6. Arm R" fill="#97c0d9" class="fill-7e7e7e"><circle cx="60" cy="60" data-name="Ellipse 60" r="60" transform="translate(313 341)"></circle><path data-name="Rectangle 68" d="M363 401h70v111h-70z"></path></g><path data-name="5. Main Body" fill="#22689e" d="M140 341h233v171H140z" class="fill-141413"></path><g data-name="4. Face Body"><rect data-name="Rectangle 65" fill="#f4ab90" height="147" rx="27" transform="translate(229 245)" width="54" class="fill-f4ab90"></rect><rect data-name="Rectangle 63" fill="#f4ab90" height="76" rx="16.5" transform="translate(140 164)" width="33" class="fill-f4ab90"></rect><rect data-name="Rectangle 62" fill="#f4ab90" height="76" rx="16.5" transform="translate(340 166)" width="33" class="fill-f4ab90"></rect><rect data-name="Rectangle 61" fill="#ffc8b4" height="258" rx="100" transform="translate(156 61)" width="200" class="fill-ffc8b4"></rect><rect data-name="Rectangle 64" fill="#f4ab90" height="91" rx="16.5" transform="translate(240 151)" width="33" class="fill-f4ab90"></rect><path d="M256 258.867c17.25 0 35-2.48 35 6.633s-15.946 22.964-35 22.964-34-13.851-34-22.964 16.75-6.633 34-6.633Z" data-name="Path 3100" fill="#ffffff" class="fill-ffffff"></path></g><g data-name="3. Eye L"><circle cx="18.861" cy="18.861" data-name="Ellipse 57" fill="#b2745d" transform="translate(185 151)" r="18.861" class="fill-b2745d"></circle><path d="M203.861 157.035c3.372 0 1.6 5.93 4.232 8.385 2.18 2.014 8.593.728 8.593 4.44a12.825 12.825 0 1 1-12.825-12.825Z" data-name="Path 3098" fill="#553326" class="fill-553326"></path></g><g data-name="2. Eye R"><path d="M308.651 151a18.861 18.861 0 1 1-18.861 18.861A18.861 18.861 0 0 1 308.651 151Z" data-name="Path 3106" fill="#b2745d" class="fill-b2745d"></path><path d="M308.651 157.035c3.372 0 1.6 5.93 4.232 8.385 2.18 2.014 8.593.728 8.593 4.44a12.825 12.825 0 1 1-12.825-12.825Z" data-name="Path 3099" fill="#553326" class="fill-553326"></path></g><path d="M268.433.382c69.86 6.102 76.433 45.648 111.743 36.782 17.373-4.363 6.242 38.597-28.335 62.601-16.075 11.16-35.312 21.81-83.39 31.32-57.782 11.428-140.897 22.954-137.559-15.26A126.974 126.974 0 0 1 268.433.382Z" data-name="1. Front Hair" fill="#22689e" class="fill-463929"></path></g></g></svg>