<svg viewBox="0 0 64 64" xmlns="http://www.w3.org/2000/svg"><g data-name="28-tom boy"><path d="M17 63h-4V44.25a3.994 3.994 0 0 1 3.18-3.92l10.15-2.05a1.993 1.993 0 0 0 1.23-.72L30 40v23ZM47 63H34V40l2.44-2.44a1.993 1.993 0 0 0 1.23.72l10.15 2.05A3.994 3.994 0 0 1 51 44.25V63Z" fill="#22689e" class="fill-ff7045"></path><path d="M27.56 37.56a1.993 1.993 0 0 1-1.23.72l-10.15 2.05A3.994 3.994 0 0 0 13 44.25v4a3.994 3.994 0 0 1 3.18-3.92l10.15-2.05a1.993 1.993 0 0 0 1.23-.72L30 44v-4ZM47.82 40.33l-10.15-2.05a1.993 1.993 0 0 1-1.23-.72L34 40v4l2.44-2.44a1.993 1.993 0 0 0 1.23.72l10.15 2.05A3.994 3.994 0 0 1 51 48.25v-4a3.994 3.994 0 0 0-3.18-3.92Z" fill="#478db8" class="fill-f92814"></path><path d="M30 42h4v21h-4z" fill="#e9edf5" class="fill-e9edf5"></path><path d="M32 13h-8l-4-5c1-1 2.97-3.04 4.06-4a12.007 12.007 0 0 1 15.88 0C41.03 4.96 43 7 44 8l-4 5h-8Z" fill="#414952" class="fill-414952"></path><path d="m23 15 .27 2.98L23 18l-3-2V8l4 5-1 2zM44 8v8l-3 2-.27-.02L41 15l-1-2 4-5z" fill="#636978" class="fill-636978"></path><path d="m23.36 19 .55 6H23a3 3 0 0 1 0-6ZM41 19a3 3 0 0 1 0 6h-.91l.55-6ZM36.44 37.56 34 40v2h-4v-2l-2.44-2.44a1.962 1.962 0 0 0 .44-1.25V33l.03-.06a7.964 7.964 0 0 0 7.94 0L36 33v3.31a1.962 1.962 0 0 0 .44 1.25Z" fill="#ffb680" class="fill-ffb680"></path><path d="M32 37a7.954 7.954 0 0 0 3.97-1.06L36 36v-3l-.03-.06a7.964 7.964 0 0 1-7.94 0L28 33v3l.03-.06A7.954 7.954 0 0 0 32 37ZM28 36.31a1.962 1.962 0 0 1-.44 1.25L28 38ZM36 38l.44-.44a1.962 1.962 0 0 1-.44-1.25Z" fill="#eb975d" class="fill-eb975d"></path><path d="m23.91 25-.55-6-.09-1.02L23 15l1-2h16l1 2-.27 2.98-.09 1.02-.55 6-.09 1a8.014 8.014 0 0 1-2.34 5.66 7.838 7.838 0 0 1-1.69 1.28A8 8 0 0 1 24 26Z" fill="#ffdaaa" class="fill-ffdaaa"></path><path d="M23.306 18.388 24 17h16l.694 1.388.036-.408L41 15l-1-2H24l-1 2 .27 2.98.036.408z" fill="#ffb680" class="fill-ffb680"></path><path d="m24 13-4-5c1-1 2.97-3.04 4.06-4a12.007 12.007 0 0 1 15.88 0C41.03 4.96 43 7 44 8l-4 5H24ZM44 8v8l-3 2M20 8v8l3 2M32 13V5M36 13l3-5M28 13l-3-5M28 33v3.31a1.962 1.962 0 0 1-.44 1.25 1.993 1.993 0 0 1-1.23.72l-10.15 2.05A3.994 3.994 0 0 0 13 44.25V63h38V44.25a3.994 3.994 0 0 0-3.18-3.92l-10.15-2.05a1.993 1.993 0 0 1-1.23-.72 1.962 1.962 0 0 1-.44-1.25V33" fill="none" stroke="#000000" stroke-linejoin="round" stroke-width="2px" class="stroke-000000"></path><path d="M19 48v5s-2 3-2 10M45 48v5s2 3 2 10M24 13l-1 2 .27 2.98.09 1.02.55 6 .09 1a7.992 7.992 0 0 0 11.97 6.94 7.838 7.838 0 0 0 1.69-1.28A8.014 8.014 0 0 0 40 26l.09-1 .55-6 .09-1.02L41 15l-1-2" fill="none" stroke="#000000" stroke-linejoin="round" stroke-width="2px" class="stroke-000000"></path><path d="M40 19h1a3 3 0 0 1 0 6h-1M24 19h-1a3 3 0 0 0 0 6h1M27 37l.56.56L30 40v23M37 37l-.56.56L34 40v23M30 42h4" fill="none" stroke="#000000" stroke-linejoin="round" stroke-width="2px" class="stroke-000000"></path></g></svg>