<svg viewBox="0 0 512 512" xmlns="http://www.w3.org/2000/svg"><defs><clipPath id="a"><path d="M0 0h512v512H0z"></path></clipPath></defs><g clip-path="url(#a)" data-name="Chr 2"><path fill="#ffffff" d="M0 0h512v512H0z" class="fill-ffffff"></path><g data-name="Character 2"><path data-name="7. Hair Back 2" fill="#ff6757" d="M129 122h254v287H129z" class="fill-463929"></path><circle cx="127" cy="127" data-name="6. Hair Back 1" fill="#ff6757" r="127" transform="translate(129 24)" class="fill-463929"></circle><g data-name="5. Main Body" fill="#f74141" class="fill-887f11"><g data-name="7. Arm L"><circle cx="60" cy="60" data-name="Ellipse 59" r="60" transform="translate(80 341)"></circle><path data-name="Rectangle 67" d="M80 401h68v111H80z"></path></g><g data-name="6. Arm R"><circle cx="60" cy="60" data-name="Ellipse 60" r="60" transform="translate(313 341)"></circle><path data-name="Rectangle 68" d="M363 401h70v111h-70z"></path></g><path data-name="Rectangle 66" d="M140 341h233v171H140z"></path></g><g data-name="4. Face Body"><rect data-name="Rectangle 65" fill="#f4ab90" height="147" rx="27" transform="translate(229 245)" width="54" class="fill-f4ab90"></rect><rect data-name="Rectangle 63" fill="#f4ab90" height="76" rx="16.5" transform="translate(140 164)" width="33" class="fill-f4ab90"></rect><rect data-name="Rectangle 62" fill="#f4ab90" height="76" rx="16.5" transform="translate(340 166)" width="33" class="fill-f4ab90"></rect><rect data-name="Rectangle 61" fill="#ffc8b4" height="258" rx="100" transform="translate(156 61)" width="200" class="fill-ffc8b4"></rect><rect data-name="Rectangle 64" fill="#f4ab90" height="91" rx="16.5" transform="translate(240 151)" width="33" class="fill-f4ab90"></rect><path d="M256 258.867c17.25 0 35-2.48 35 6.633s-15.946 22.964-35 22.964-34-13.851-34-22.964 16.75-6.633 34-6.633Z" data-name="Path 3100" fill="#ffffff" class="fill-ffffff"></path></g><g data-name="3. Eye L"><circle cx="18.861" cy="18.861" data-name="Ellipse 57" fill="#b2745d" transform="translate(185 151)" r="18.861" class="fill-b2745d"></circle><path d="M203.861 157.035c3.372 0 1.6 5.93 4.232 8.385 2.18 2.014 8.593.728 8.593 4.44a12.825 12.825 0 1 1-12.825-12.825Z" data-name="Path 3098" fill="#000000" class="fill-553326"></path></g><g data-name="2. Eye R"><path d="M308.651 151a18.861 18.861 0 1 1-18.861 18.861A18.861 18.861 0 0 1 308.651 151Z" data-name="Path 3106" fill="#b2745d" class="fill-b2745d"></path><path d="M308.651 157.035c3.372 0 1.6 5.93 4.232 8.385 2.18 2.014 8.593.728 8.593 4.44a12.825 12.825 0 1 1-12.825-12.825Z" data-name="Path 3099" fill="#000000" class="fill-553326"></path></g><path d="M256 0a127 127 0 0 1 127 127c0 70.14-56.86 5.128-127 5.128S129 197.14 129 127A127 127 0 0 1 256 0Z" data-name="1. Hair 1" fill="#ff6757" class="fill-463929"></path></g></g></svg>