<svg viewBox="0 0 64 64" xmlns="http://www.w3.org/2000/svg"><g data-name="55-woman"><path transform="rotate(-45 32 48)" d="M29.879 45.879h4.243v4.243h-4.243z" fill="#e9edf5" class="fill-e9edf5"></path><path d="m32 45-3 3 3 3 3-3Zm13.5 9a23.169 23.169 0 0 1 1.5 9H17a23.169 23.169 0 0 1 1.5-9H13v-9.75a3.994 3.994 0 0 1 3.18-3.92l4.42-.89A18.356 18.356 0 0 0 24 43v-4.25l2.33-.47a1.943 1.943 0 0 0 1.02-.51c.7 1.4 2.39 4.23 4.65 4.23s3.95-2.83 4.65-4.23a1.943 1.943 0 0 0 1.02.51l2.33.47V43a18.356 18.356 0 0 0 3.4-3.56l4.42.89A3.994 3.994 0 0 1 51 44.25V54Z" fill="#f74141" class="fill-ff7045"></path><path d="M27.35 40.77c.7 1.4 2.39 4.23 4.65 4.23s3.95-2.83 4.65-4.23a1.943 1.943 0 0 0 1.02.51l2.33.47v-3l-2.33-.47a1.943 1.943 0 0 1-1.02-.51C35.95 39.17 34.26 42 32 42s-3.95-2.83-4.65-4.23a1.943 1.943 0 0 1-1.02.51l-2.33.47v3l2.33-.47a1.943 1.943 0 0 0 1.02-.51ZM32 54l3-3-1.5-1.5L32 51l-1.5-1.5L29 51l3 3zM16.18 43.33l4.42-.89A18.356 18.356 0 0 0 24 46v-3a18.356 18.356 0 0 1-3.4-3.56l-4.42.89A3.994 3.994 0 0 0 13 44.25v3a3.994 3.994 0 0 1 3.18-3.92ZM47.82 40.33l-4.42-.89A18.356 18.356 0 0 1 40 43v3a18.356 18.356 0 0 0 3.4-3.56l4.42.89A3.994 3.994 0 0 1 51 47.25v-3a3.994 3.994 0 0 0-3.18-3.92Z" fill="#ff6757" class="fill-f92814"></path><path d="M13 54h5.5a23.169 23.169 0 0 0-1.5 9h-4ZM51 54v9h-4a23.169 23.169 0 0 0-1.5-9Z" fill="#ffb680" class="fill-ffb680"></path><path d="M41 17a3 3 0 0 1 0 6h-.91l.55-6ZM36 31v4h-8v-4l.03-.06A7.954 7.954 0 0 0 32 32a7.843 7.843 0 0 0 3.96-1.06Z" fill="#eb975d" class="fill-eb975d"></path><path d="M36 36.31a1.94 1.94 0 0 0 .65 1.46C35.95 39.17 34.26 42 32 42s-3.95-2.83-4.65-4.23a1.94 1.94 0 0 0 .65-1.46V35h8Z" fill="#ffb680" class="fill-ffb680"></path><path d="m40.64 17-.55 6-.09 1a8.014 8.014 0 0 1-2.34 5.66 7.585 7.585 0 0 1-1.7 1.28A7.843 7.843 0 0 1 32 32a8.013 8.013 0 0 1-8-8l-.35-3.9C32.48 17.16 36 8 36 8c0 5 5 5 5 5Z" fill="#ffdaaa" class="fill-ffdaaa"></path><path d="M36 11a4.792 4.792 0 0 0 4.731 4.985L41 13s-5 0-5-5c0 0-3.52 9.16-12.35 12.1l.26 2.9C32.543 19.965 36 11 36 11Z" fill="#ffb680" class="fill-ffb680"></path><path d="M27.35 37.77a1.943 1.943 0 0 1-1.02.51l-2.33.47V24a7.974 7.974 0 0 0 4.03 6.94L28 31v5.31a1.94 1.94 0 0 1-.65 1.46ZM40 24v14.75l-2.33-.47A2.033 2.033 0 0 1 36 36.31V31l-.04-.06a7.585 7.585 0 0 0 1.7-1.28A8.014 8.014 0 0 0 40 24Z" fill="#cc9f56" class="fill-cc9f56"></path><path d="M24 38.75V43a18.356 18.356 0 0 1-3.4-3.56A15.6 15.6 0 0 1 18 34V21a17.479 17.479 0 0 0 5.65-.9L24 24ZM46 20v14a15.6 15.6 0 0 1-2.6 5.44A18.356 18.356 0 0 1 40 43V24l.09-1H41a3 3 0 0 0 3-3Z" fill="#fad17f" class="fill-fad17f"></path><path d="M46 15v5h-2a3 3 0 0 0-3-3h-.36l.36-4s-5 0-5-5c0 0-3.52 9.16-12.35 12.1A17.479 17.479 0 0 1 18 21v-6a14 14 0 0 1 28 0Z" fill="#fad17f" class="fill-fad17f"></path><path d="M41 10s-5 0-5-5c0 0-3.52 9.16-12.35 12.1A17.479 17.479 0 0 1 18 18v3a17.479 17.479 0 0 0 5.65-.9C32.48 17.16 36 8 36 8a4.792 4.792 0 0 0 4.731 4.985ZM41 14h-.09l-.27 3H41a3 3 0 0 1 3 3h2v-3h-2a3 3 0 0 0-3-3Z" fill="#fcf2b6" class="fill-fcf2b6"></path><path d="M23.65 20.1 24 24v19a18.356 18.356 0 0 1-3.4-3.56A15.6 15.6 0 0 1 18 34V21" fill="none" stroke="#000000" stroke-linejoin="round" stroke-width="2px" class="stroke-000000"></path><path d="M18 21v-6a14 14 0 0 1 28 0v19a15.6 15.6 0 0 1-2.6 5.44A18.356 18.356 0 0 1 40 43V24l.09-1H41a3 3 0 0 0 0-6h-.36l.36-4s-5 0-5-5c0 0-3.52 9.16-12.35 12.1A17.479 17.479 0 0 1 18 21Z" fill="none" stroke="#000000" stroke-linejoin="round" stroke-width="2px" class="stroke-000000"></path><path d="M18 21s3-9 7-12M24 24a8.013 8.013 0 0 0 8 8 7.843 7.843 0 0 0 3.96-1.06 7.585 7.585 0 0 0 1.7-1.28A8.014 8.014 0 0 0 40 24M40.64 17l-.55 6M23.65 20.1l-.01-.1M20.6 39.44l-4.42.89A3.994 3.994 0 0 0 13 44.25V63h38V44.25a3.994 3.994 0 0 0-3.18-3.92l-4.42-.89M40 38.75l-2.33-.47A2.033 2.033 0 0 1 36 36.31V31" fill="none" stroke="#000000" stroke-linejoin="round" stroke-width="2px" class="stroke-000000"></path><path d="m24 38.75 2.33-.47A2.033 2.033 0 0 0 28 36.31V31M40.09 23H40M40.64 17H40M28 35h8M19 50v3a7.048 7.048 0 0 0-.5 1 23.169 23.169 0 0 0-1.5 9M13 54h6M45 50v3a7.048 7.048 0 0 1 .5 1 23.169 23.169 0 0 1 1.5 9M51 54h-6" fill="none" stroke="#000000" stroke-linejoin="round" stroke-width="2px" class="stroke-000000"></path><path d="M27 37s.12.31.35.77c.7 1.4 2.39 4.23 4.65 4.23s3.95-2.83 4.65-4.23c.23-.46.35-.77.35-.77" fill="none" stroke="#000000" stroke-linejoin="round" stroke-width="2px" class="stroke-000000"></path><path transform="rotate(-45 32 48)" d="M29.879 45.879h4.243v4.243h-4.243z" fill="none" stroke="#000000" stroke-linejoin="round" stroke-width="2px" class="stroke-000000"></path><path d="M32 42v3" fill="none" stroke="#000000" stroke-linejoin="round" stroke-width="2px" class="stroke-000000"></path></g></svg>