<svg width="300" height="404" viewBox="0 0 300 404" fill="none" xmlns="http://www.w3.org/2000/svg" xmlns:xlink="http://www.w3.org/1999/xlink">
<path d="M155.884,369.187C195.838,369.187 228.227,336.798 228.227,296.843C228.227,256.889 195.838,224.5 155.884,224.5C115.929,224.5 83.54,256.889 83.54,296.843C83.54,336.798 115.929,369.187 155.884,369.187Z" transform="rotate(-90 155.884 296.843)" fill="#FFB199"/>
<rect  x="137.528" y="203.775" width="35.88" height="24.916" fill="#FFB199"/>
<g opacity="0.5">
<rect  x="137.528" y="203.775" width="35.88" height="24.916" fill="#FF8255"/>
</g>
<path d="M155.884,371.478C197.103,371.478 230.519,338.063 230.519,296.843C230.519,255.623 197.103,222.208 155.884,222.208C114.664,222.208 81.248,255.623 81.248,296.843C81.248,338.063 114.664,371.478 155.884,371.478Z" transform="rotate(-90 155.884 296.843)" fill="#F74141"/>
<rect  x="134.271" y="213.908" width="41.699" height="26.577" fill="#F74141"/>
<path d="M155.617,106.985C168.614,106.985 179.151,96.449 179.151,83.452C179.151,70.455 168.614,59.919 155.617,59.919C142.621,59.919 132.084,70.455 132.084,83.452C132.084,96.449 142.621,106.985 155.617,106.985Z" fill="#ED4F4F"/>
<path d="M219.481,150.941C218.991,115.82 190.373,87.499 155.135,87.499C119.897,87.499 91.279,115.82 90.789,150.941L90.778,150.941L90.778,158.261L219.492,158.261L219.492,150.941L219.481,150.941Z" fill="#FF6757"/>
<path d="M99.527,177.264C107.801,177.264 114.509,170.556 114.509,162.282C114.509,154.008 107.801,147.3 99.527,147.3C91.253,147.3 84.545,154.008 84.545,162.282C84.545,170.556 91.253,177.264 99.527,177.264Z" fill="#FFB199"/>
<g opacity="0.5">
<path d="M99.527,177.264C107.801,177.264 114.509,170.556 114.509,162.282C114.509,154.008 107.801,147.3 99.527,147.3C91.253,147.3 84.545,154.008 84.545,162.282C84.545,170.556 91.253,177.264 99.527,177.264Z" fill="#FF8255"/>
</g>
<path d="M212.345,177.264C220.619,177.264 227.326,170.556 227.326,162.282C227.326,154.008 220.619,147.3 212.345,147.3C204.07,147.3 197.363,154.008 197.363,162.282C197.363,170.556 204.07,177.264 212.345,177.264Z" fill="#FFB199"/>
<g opacity="0.5">
<path d="M212.345,177.264C220.619,177.264 227.326,170.556 227.326,162.282C227.326,154.008 220.619,147.3 212.345,147.3C204.07,147.3 197.363,154.008 197.363,162.282C197.363,170.556 204.07,177.264 212.345,177.264Z" fill="#FF8255"/>
</g>
<path d="M155.465,213.742C186.473,213.742 211.609,188.605 211.609,157.597C211.609,126.589 186.473,101.451 155.465,101.451C124.457,101.451 99.32,126.589 99.32,157.597C99.32,188.605 124.457,213.742 155.465,213.742Z" transform="rotate(-90 155.465 157.597)" fill="#FFB199"/>
<path d="M202.817,140.551C202.454,114.525 181.247,93.538 155.135,93.538C129.023,93.538 107.816,114.524 107.453,140.551L107.444,140.551L107.444,145.975L202.825,145.975L202.825,140.551L202.817,140.551Z" fill="#FF6757"/>
<circle cx="119.422" cy="165.902" r="5.648" fill="#001433"/>
<path d="M185.866,165.902C185.866,169.021 188.395,171.549 191.513,171.549C194.633,171.549 197.161,169.02 197.161,165.902C197.161,162.782 194.632,160.254 191.513,160.254C188.394,160.254 185.866,162.783 185.866,165.902Z" fill="#001433"/>
<path d="M143.405,166.936C143.421,166.1 142.757,165.41 141.922,165.394C141.086,165.378 140.396,166.042 140.38,166.878L143.405,166.936ZM169.21,166.878C169.194,166.042 168.504,165.378 167.669,165.394C166.833,165.41 166.169,166.1 166.185,166.936L169.21,166.878ZM140.38,166.878C140.38,166.884 140.38,166.887 140.379,166.918C140.378,166.942 140.376,166.984 140.376,167.032L143.402,167.032C143.402,167.038 143.402,167.038 143.403,167.02C143.403,167.016 143.403,167.012 143.403,167.006C143.403,167.001 143.403,166.994 143.404,166.987C143.404,166.974 143.405,166.956 143.405,166.936L140.38,166.878ZM140.376,167.032C140.376,174.996 146.832,181.451 154.795,181.451L154.795,178.425C148.503,178.425 143.402,173.325 143.402,167.032L140.376,167.032ZM154.795,181.451C162.759,181.451 169.214,174.996 169.214,167.032L166.188,167.032C166.188,173.325 161.088,178.425 154.795,178.425L154.795,181.451ZM169.214,167.032C169.214,166.984 169.212,166.942 169.212,166.919C169.211,166.888 169.21,166.884 169.21,166.878L166.185,166.936C166.186,166.956 166.186,166.973 166.187,166.987C166.187,166.994 166.187,167.001 166.187,167.006C166.187,167.012 166.188,167.016 166.188,167.02C166.188,167.039 166.188,167.038 166.188,167.032L169.214,167.032Z" fill="#001433"/>
<g opacity="0.1">
<circle cx="77.622" cy="62.634" r="50.278" fill="#003154"/>
</g>
<circle cx="69.049" cy="54.062" r="50.278" fill="#FF6757"/>
<g opacity="0.2">
<path d="M98.172,43.908C98.172,30.35 87.142,19.321 73.585,19.321C60.027,19.321 48.998,30.351 48.998,43.908C48.998,56.245 58.132,66.486 69.994,68.229L69.994,80.833L62.719,80.833L62.719,88.015L69.994,88.015L69.994,99.892L77.176,99.892L77.176,88.015L84.451,88.015L84.451,80.833L77.176,80.833L77.176,68.229C89.037,66.486 98.172,56.246 98.172,43.908ZM56.18,43.908C56.18,34.311 63.988,26.503 73.585,26.503C83.182,26.503 90.99,34.311 90.99,43.908C90.99,53.504 83.182,61.312 73.585,61.312C63.988,61.312 56.18,53.504 56.18,43.908Z" fill="#003154"/>
</g>
<path d="M69.049,62.949C55.491,62.949 44.461,51.92 44.461,38.363C44.461,24.806 55.491,13.777 69.049,13.777C82.606,13.777 93.636,24.806 93.636,38.363C93.636,51.92 82.607,62.949 69.049,62.949ZM69.049,20.958C59.451,20.958 51.643,28.766 51.643,38.362C51.643,47.959 59.451,55.767 69.049,55.767C78.646,55.767 86.454,47.959 86.454,38.362C86.454,28.766 78.646,20.958 69.049,20.958Z" fill="#FFFFFF"/>
<rect  x="65.458" y="60.647" width="7.182" height="33.7" fill="#FFFFFF"/>
<rect  x="58.183" y="75.288" width="21.732" height="7.182" fill="#FFFFFF"/>
</svg>
