<svg width="264" height="428" viewBox="0 0 264 428" fill="none" xmlns="http://www.w3.org/2000/svg" xmlns:xlink="http://www.w3.org/1999/xlink">
<g opacity="0.1">
<path d="M149.784,280.001C212.711,280.001 263.724,228.988 263.724,166.06C263.724,103.133 212.711,52.121 149.784,52.121C86.856,52.121 35.844,103.133 35.844,166.06C35.844,228.988 86.856,280.001 149.784,280.001Z" fill="#003154"/>
</g>
<path d="M140.575,270.791C203.502,270.791 254.515,219.778 254.515,156.851C254.515,93.924 203.502,42.911 140.575,42.911C77.648,42.911 26.635,93.924 26.635,156.851C26.635,219.778 77.648,270.791 140.575,270.791Z" fill="#FFFFFF"/>
<path d="M146.892,392.309C189.812,392.309 224.605,357.515 224.605,314.595C224.605,271.676 189.812,236.882 146.892,236.882C103.972,236.882 69.179,271.676 69.179,314.595C69.179,357.515 103.972,392.309 146.892,392.309Z" transform="rotate(-90 146.892 314.596)" fill="#C0E4F9"/>
<rect  x="127.175" y="214.617" width="38.543" height="26.766" fill="#C0E4F9"/>
<g opacity="0.2">
<rect  x="127.175" y="214.617" width="38.543" height="26.766" fill="#22689E"/>
</g>
<path d="M146.892,394.77C191.171,394.77 227.066,358.875 227.066,314.596C227.066,270.316 191.171,234.421 146.892,234.421C102.612,234.421 66.717,270.316 66.717,314.596C66.717,358.875 102.612,394.77 146.892,394.77Z" transform="rotate(-90 146.892 314.596)" fill="#22689E"/>
<rect  x="123.677" y="225.503" width="44.794" height="28.55" fill="#22689E"/>
<path d="M215.211,157.862C214.685,120.134 183.942,89.711 146.089,89.711C108.236,89.711 77.494,120.134 76.968,157.862L76.955,157.862L76.955,165.725L215.223,165.725L215.223,157.862L215.211,157.862Z" fill="#22689E"/>
<path d="M86.353,186.139C95.242,186.139 102.447,178.933 102.447,170.045C102.447,161.157 95.242,153.951 86.353,153.951C77.465,153.951 70.26,161.157 70.26,170.045C70.26,178.933 77.465,186.139 86.353,186.139Z" fill="#C0E4F9"/>
<g opacity="0.2">
<path d="M86.353,186.139C95.242,186.139 102.447,178.933 102.447,170.045C102.447,161.157 95.242,153.951 86.353,153.951C77.465,153.951 70.26,161.157 70.26,170.045C70.26,178.933 77.465,186.139 86.353,186.139Z" fill="#22689E"/>
</g>
<path d="M207.545,186.139C216.433,186.139 223.638,178.933 223.638,170.045C223.638,161.157 216.433,153.951 207.545,153.951C198.656,153.951 191.451,161.157 191.451,170.045C191.451,178.933 198.656,186.139 207.545,186.139Z" fill="#C0E4F9"/>
<g opacity="0.2">
<path d="M207.545,186.139C216.433,186.139 223.638,178.933 223.638,170.045C223.638,161.157 216.433,153.951 207.545,153.951C198.656,153.951 191.451,161.157 191.451,170.045C191.451,178.933 198.656,186.139 207.545,186.139Z" fill="#22689E"/>
</g>
<path d="M146.446,225.325C179.756,225.325 206.759,198.322 206.759,165.012C206.759,131.702 179.756,104.699 146.446,104.699C113.137,104.699 86.134,131.702 86.134,165.012C86.134,198.322 113.137,225.325 146.446,225.325Z" fill="#C0E4F9"/>
<path d="M227.867,109.499C227.867,109.499 212.668,118.217 195.051,106.542C166.829,87.84 137.952,71.76 114.323,96.043C100.541,113.436 102.756,134.438 121.461,151.667C132.664,162.869 170.992,171.861 198.829,155.376L198.829,178.002L207.602,178.002L207.602,148.955C217.219,140.366 224.685,127.659 227.867,109.499Z" fill="#22689E"/>
<path d="M111.863,133.946C111.863,123.51 105.429,114.582 96.314,110.897C84.799,122.85 77.553,138.931 77.012,156.708C77.082,156.739 77.155,156.765 77.226,156.795C79.821,155.004 82.961,153.95 86.353,153.95L86.353,178.001L95.127,178.001L95.127,157.441C104.866,154.077 111.863,144.831 111.863,133.946Z" fill="#22689E"/>
<path d="M101.658,173.933C101.658,177.284 104.375,180 107.725,180C111.076,180 113.791,177.284 113.791,173.933C113.791,170.583 111.075,167.867 107.725,167.867C104.375,167.867 101.658,170.583 101.658,173.933Z" fill="#001433"/>
<path d="M179.101,173.933C179.101,177.284 181.817,180 185.167,180C188.518,180 191.234,177.284 191.234,173.933C191.234,170.583 188.517,167.867 185.167,167.867C181.816,167.867 179.101,170.583 179.101,173.933Z" fill="#001433"/>
<path d="M134.211,174.322C134.228,173.424 133.515,172.683 132.617,172.666C131.72,172.648 130.978,173.362 130.961,174.259L134.211,174.322ZM161.932,174.259C161.914,173.362 161.173,172.648 160.275,172.666C159.378,172.683 158.665,173.424 158.682,174.322L161.932,174.259ZM130.961,174.259C130.961,174.266 130.961,174.269 130.96,174.302C130.959,174.328 130.957,174.373 130.957,174.425L134.208,174.425C134.208,174.431 134.207,174.432 134.208,174.413C134.208,174.408 134.208,174.404 134.209,174.398C134.209,174.392 134.209,174.385 134.209,174.377C134.21,174.363 134.21,174.343 134.211,174.322L130.961,174.259ZM130.957,174.425C130.957,182.98 137.892,189.914 146.446,189.914L146.446,186.664C139.687,186.664 134.208,181.185 134.208,174.425L130.957,174.425ZM146.446,189.914C155,189.914 161.935,182.98 161.935,174.425L158.685,174.425C158.685,181.185 153.205,186.664 146.446,186.664L146.446,189.914ZM161.935,174.425C161.935,174.374 161.934,174.329 161.933,174.304C161.932,174.271 161.932,174.267 161.932,174.259L158.682,174.322C158.682,174.343 158.683,174.362 158.683,174.376C158.684,174.384 158.684,174.391 158.684,174.397C158.684,174.403 158.684,174.407 158.685,174.412C158.685,174.432 158.685,174.431 158.685,174.425L161.935,174.425Z" fill="#001433"/>
<g opacity="0.1">
<path d="M63.22,117.229C93.049,117.229 117.23,93.047 117.23,63.219C117.23,33.39 93.049,9.209 63.22,9.209C33.391,9.209 9.21,33.39 9.21,63.219C9.21,93.047 33.391,117.229 63.22,117.229Z" fill="#003154"/>
</g>
<path d="M54.01,108.02C83.839,108.02 108.02,83.839 108.02,54.01C108.02,24.181 83.839,0 54.01,0C24.181,0 0,24.181 0,54.01C0,83.839 24.181,108.02 54.01,108.02Z" fill="#22689E"/>
<g opacity="0.2">
<path d="M74.526,26.211L75.363,33.938L79.908,33.446L67.571,45.784C63.01,42.381 57.499,40.54 51.704,40.54C44.598,40.54 37.916,43.308 32.891,48.333C27.866,53.357 25.099,60.039 25.099,67.146C25.099,74.252 27.866,80.934 32.891,85.959C37.916,90.984 44.597,93.752 51.704,93.752C58.811,93.752 65.492,90.984 70.517,85.959C79.955,76.52 80.776,61.714 73.041,51.305L85.403,38.943L84.912,43.488L92.638,44.325L94.836,24.014L74.526,26.211ZM65.022,80.464C61.465,84.02 56.736,85.979 51.704,85.979C46.673,85.979 41.944,84.02 38.387,80.464C34.829,76.906 32.871,72.176 32.871,67.146C32.871,62.115 34.83,57.386 38.387,53.828C41.943,50.271 46.673,48.312 51.704,48.312C56.736,48.312 61.464,50.272 65.022,53.828C72.364,61.172 72.363,73.119 65.022,80.464Z" fill="#003154"/>
</g>
<path d="M45.747,88.879C38.641,88.879 31.96,86.111 26.934,81.086C21.908,76.061 19.142,69.379 19.142,62.273C19.142,55.166 21.909,48.485 26.934,43.46C31.959,38.435 38.641,35.667 45.747,35.667C52.854,35.667 59.535,38.435 64.56,43.46C74.934,53.834 74.934,70.711 64.56,81.086C59.535,86.111 52.854,88.879 45.747,88.879ZM45.747,43.44C40.716,43.44 35.987,45.4 32.43,48.956C28.873,52.513 26.914,57.242 26.914,62.274C26.914,67.304 28.873,72.034 32.43,75.591C35.987,79.148 40.716,81.107 45.747,81.107C50.779,81.107 55.507,79.148 59.065,75.591C66.407,68.248 66.408,56.3 59.065,48.957C55.507,45.399 50.779,43.44 45.747,43.44Z" fill="#FFFFFF"/>
<path d="M89.327,30.349L58.243,30.349L58.243,38.121L89.327,38.121L89.327,30.349Z" transform="rotate(-90 73.785 34.235)" fill="#FFFFFF"/>
<path d="M86.681,39.452L78.954,38.615L80.113,27.907L69.406,29.065L68.569,21.339L88.879,19.141L86.681,39.452Z" fill="#FFFFFF"/>
</svg>
