<svg width="38" height="22" viewBox="0 0 38 22" fill="none" xmlns="http://www.w3.org/2000/svg" xmlns:xlink="http://www.w3.org/1999/xlink">
<path d="M31.7,0C30.595,0 29.7,0.895 29.7,2L29.7,20C29.7,21.105 30.595,22 31.7,22L34.3,22C35.404,22 36.3,21.105 36.3,20L36.3,2C36.3,0.895 35.404,0 34.3,0L31.7,0ZM19.8,6.4C19.8,5.295 20.696,4.4 21.8,4.4L24.4,4.4C25.505,4.4 26.4,5.295 26.4,6.4L26.4,20C26.4,21.104 25.505,22 24.4,22L21.8,22C20.696,22 19.8,21.104 19.8,20L19.8,6.4ZM11.9,8.8C10.795,8.8 9.9,9.696 9.9,10.8L9.9,20C9.9,21.105 10.795,22 11.9,22L14.5,22C15.604,22 16.5,21.105 16.5,20L16.5,10.8C16.5,9.696 15.604,8.8 14.5,8.8L11.9,8.8ZM2.2,22C0.985,22 0,21.015 0,19.8L0,14.3C0,13.085 0.985,12.1 2.2,12.1L4.4,12.1C5.615,12.1 6.6,13.085 6.6,14.3L6.6,19.8C6.6,21.015 5.615,22 4.4,22L2.2,22Z" clip-rule="evenodd" fill-rule="evenodd" fill="#272829"/>
</svg>
