<svg width="36" height="26" viewBox="0 0 36 26" fill="none" xmlns="http://www.w3.org/2000/svg" xmlns:xlink="http://www.w3.org/1999/xlink">
<path d="M18.001,5.4C23.224,5.4 28.248,7.419 32.033,11.039C32.318,11.318 32.774,11.315 33.055,11.031L35.78,8.265C35.922,8.121 36.001,7.926 36,7.723C35.999,7.52 35.917,7.326 35.773,7.183C25.838,-2.394 10.163,-2.394 0.227,7.183C0.083,7.326 0.001,7.52 0,7.723C-0.001,7.926 0.078,8.121 0.22,8.265L2.946,11.031C3.226,11.315 3.682,11.319 3.967,11.039C7.753,7.418 12.777,5.4 18.001,5.4ZM18.001,14.399C20.871,14.399 23.638,15.472 25.766,17.41C26.053,17.685 26.507,17.679 26.787,17.396L29.509,14.63C29.652,14.485 29.732,14.288 29.73,14.084C29.728,13.879 29.644,13.684 29.498,13.542C23.02,7.481 12.988,7.481 6.51,13.542C6.363,13.684 6.28,13.879 6.278,14.084C6.276,14.289 6.356,14.485 6.499,14.63L9.22,17.396C9.501,17.679 9.954,17.685 10.242,17.41C12.368,15.473 15.133,14.401 18.001,14.399ZM23.232,21.001C23.377,20.858 23.457,20.66 23.453,20.455C23.449,20.25 23.361,20.055 23.21,19.918C20.203,17.36 15.799,17.36 12.792,19.918C12.641,20.055 12.553,20.249 12.548,20.454C12.544,20.66 12.624,20.857 12.77,21.001L17.478,25.78C17.616,25.921 17.805,26 18.001,26C18.197,26 18.385,25.921 18.523,25.78L23.232,21.001Z" fill="#272829"/>
</svg>
